<?xml version="1.0" encoding="utf-8"?>
<!-- Generator: Adobe Illustrator 24.2.3, SVG Export Plug-In . SVG Version: 6.00 Build 0)  -->
<svg version="1.1" id="Layer_3" xmlns="http://www.w3.org/2000/svg" xmlns:xlink="http://www.w3.org/1999/xlink" x="0px" y="0px"
	 viewBox="0 0 2181.4 325.1" style="enable-background:new 0 0 2181.4 325.1;" xml:space="preserve">
<style type="text/css">
	.st0{clip-path:url(#SVGID_2_);}
	.st1{fill:#0DBA86;}
	.st2{fill:#0a797d;}
</style>
<g>
	<g>
		<g>
			<defs>
				<polygon id="SVGID_1_" points="2183.2,325.1 1.1,325.1 1.1,-8.1 2181.2,-8.1 				"/>
			</defs>
			<clipPath id="SVGID_2_">
				<use xlink:href="#SVGID_1_"  style="overflow:visible;"/>
			</clipPath>
			<g class="st0">
				<g id="Isolation_Mode">
					<path class="st1" d="M1080.7,773.1c16.1,0.7,18.7,3,42.5,1.5c-7,1.6-12.3,3-14.5,4.1c5.8-1.5,24.5-4,47-7.1
						c34.8-3.9,92.1-11.5,191.8-26.1c26.5-3.9,49.2-11.1,88-20.1c-5.9,0.7-11.5,1.3-17.2,2c72.6-12.5,135.5-31.1,202.7-44.4l1.3-4
						c-78.2,12.2-120.2,17.9-126.4,22.3c-18.3,13.3-83.6,16.7-118.1,30.4c-48,5-91.1,9.3-126.8,16c-52.8,10-106,17-159.6,21.1
						C1087.8,770.3,1084.3,771.7,1080.7,773.1z"/>
					<path class="st1" d="M1749.6,675.8c-24.9,4.8-46.4,10.8-64.4,17.9C1697.5,691,1745.1,679.9,1749.6,675.8z"/>
					<path class="st1" d="M1749.6,675.8c0.3,0,0.5-0.1,0.8-0.2l-0.5-0.1C1749.8,675.7,1749.7,675.8,1749.6,675.8z"/>
					<path class="st1" d="M1801,658c-20.1,7-34.5,12-48.7,17C1808.3,661.8,1795.3,665.8,1801,658z"/>
					<path class="st1" d="M1750.4,675.7c0.6-0.2,1.2-0.4,1.9-0.7C1751.1,675.3,1749.7,675.6,1750.4,675.7z"/>
					<path class="st1" d="M423.8,806.1c17.8,2,61.2,3.3,89.8-0.2c-21.9-3.8-67.4-2.8-89.5,0L423.8,806.1z"/>
					<path class="st1" d="M504.3,820.8c15.3,0.9,69.5,2,81.4-1.3C575.1,819.8,522,816.4,504.3,820.8z"/>
					<path class="st1" d="M585.6,810.4c0.4-0.8,60.9-6.7,61.1-7.4c-9.1,0.4-112,1.6-126.3,2.2C530.8,809.3,574.5,812.4,585.6,810.4z
						"/>
					<path class="st1" d="M684.9,821.4c-25-0.7-50,0.3-74.8,3.2C622.6,824.6,672.4,824.4,684.9,821.4z"/>
					<path class="st1" d="M685.7,821.3c-0.3,0-0.5,0.1-0.8,0.2c0.2,0,0.5,0,0.7,0L685.7,821.3z"/>
					<path class="st1" d="M753.7,815.5c-27,2.4-46.5,4.1-65.6,5.7C747.1,820.8,731,821.8,753.7,815.5z"/>
					<path class="st1" d="M685.7,821.5l2.5-0.2C686.9,821.3,685.7,821.2,685.7,821.5z"/>
					<path class="st1" d="M1745.7,660.8c-1.9-0.6,103-35.3,102-35.2c-17.8,2.2-134.4,40.9-144.5,45.9L1745.7,660.8z"/>
					<path class="st1" d="M1599.9,696.5c-10.2,2.7-124,27.9-133.3,30.3C1486.4,724.2,1592.1,701,1599.9,696.5z"/>
					<path class="st1" d="M1,752.7c0,4,0,8,0,12c13.2,2.2,23.4,3.2,27.2,2.6C37.9,765.8,36.6,758.7,1,752.7z"/>
					<path class="st1" d="M518.8,792.6c18,12.2,62.7,5.8,92.1,7.8C589,794.4,559.2,792.6,518.8,792.6z"/>
					<path class="st1" d="M1230.9,768.4c3,0-62.2,9.7-82.6,12.7l-19.9,1.1c-1.2,1-46.4,7.9-47.6,8.9c8.2-1.2,115.1-13.5,115.1-13.5
						c34.6,0.3,99.9-15.3,99.9-15.3c18.6-3.4,125.7-19.2,139.4-27.4l-27.4,4.5c15.1-3.1,28.8-6,33-6.9c-11.5,0-56.3,8-75,13.8
						C1313.3,754.8,1249.1,765.4,1230.9,768.4z"/>
					<path class="st2" d="M2173.4,520.6c0.1-7.2,0.2-14.4,0.4-21.6c-19.7,8.4-41.1,15.6-59.8,18.9c10.9-4.8,24.1-10.4,38.1-16.5
						c2-0.6,4-1.4,5.8-2.6c5.3-2.3,10.7-4.7,16-7.1c0.7-39.2,3.7-78.5,5.1-117.7c2.9-85.4,5-170.9,3.9-256.4
						c-0.1-4.3-0.1-8.7-0.2-13l-28.3-6.7c0.4,0,0.7-0.1,1.2-0.2c5.7-0.4,11.6-0.8,18-1.3c3.7,1.2,7,2.4,9.1,4.2
						c0-4.2-0.1-8.4-0.1-12.6c-15.3-4.4-29.5-8.2-40.2-10.7c14.7-4.6-1.1-10.6-48.7-28.5c-4.2-1.6-14.8-1.4-22.6-2
						c4.9,8-16,6.1-26.7,7.8c8.5,2.7,16.2,5.1,24.6,7.7c-10,3.3-17.5,5.7-25.4,8.3c-19.9-2-33.6-8-54.4-7.4
						c-43.5-7.1-87.7-12.2-129.2-20.9l3.9-2.3l38.6-1.8c0,0-21.7-2.8-42-6.7c1.3-0.5,2.6-0.9,3.8-1.4l48.4,2.4
						c0.1-1.1-2.1-2.2-5.9-3.2c16.8,1.4,44.7,4,56,5.1c3.9,1.1,7.8,2.2,11.7,3.3c3.1-0.7,41,2.6,44.2,1.8c-6.8-0.7-86-12.3-86-12.3
						c-14.6-7.9-83.8-7.2-83.8-7.2c-14.7-0.7-81.7-6.9-117.7-5.5c-28.8-2.8-58.2-4.5-79.8-2.6c-21.2-0.8-41.5-1.5-60.2-2.1
						c-13.6-1.7-26.5-1.8-95.9-3.2c6.2-2,11-3.6,17.9-5.9c-28.1-1,9.2-2.2-133.8,5.3c-16.2,0.9-131.3-2.4-183.8,10.7
						c-4,1-76.2,6.6-97.1,9.6c-31.4,4.5-57,7.7-78.3,10.1c5.3-1.2,8.9-2.2,9.6-2.8c-8.2,0.1,18-6,74.2-9.6
						c4.5-7.6-117.8,7.5-222.3,13.7c-4.2,0.2-9.2,2.3-16.9,4.3c9.8-0.2,20.2-1.4,29.4-2.2c-11.7,2-23.2,3.8-33.2,4
						c-26.3,0.5-37.8,8.5-58.6,10.6c-31,3.1-34.2,3-51.7,10.6c-8.4,0.2-14.4,0.3-21,0.4c-8.5,6.6-108.3,23.7-123.1,26.5
						c0.2,0.6,0.4,1.3,0.7,2.1c-20.9,4.4-52.5,10.8-65.5,14c29-1.1,59.8-5.9,74.3-12.1c9.8-1.1,28.1-5.7,35.5-5.5
						c5,0.1,9.9,0,14.9-0.3c-108.1,20.1-214.3,41.6-229.2,44.4l-1.7,0.3c0.8-2.4,1.4-4.1,2.3-6.8c-29.8,5.8,3.1-3.1-116,31.9
						c-13.4,3.9-133.5,27.9-150.5,45.4c-1.3,1.3-56.9,19.8-69.4,25.7c-45.4,21.5-82.6,32.6-101.8,39.7c0,4.4,0,8.9,0,13.3
						c1.1,0.2,2.2,0.5,3.3,0.8l-3.2,1.4c0,5.9,0,11.8,0,17.7c9.4-5.7,24.5-11,35.3-16.1c17.8-6.4,36.9-12.5,48.4-19.8
						c5.5-2,11.2-4,17.2-5.9c-0.1-0.6-0.2-1.1-0.3-1.7c11-3.3,28.6-7.5,56.1-14.5c-4.8-0.5-9.7-1-15.1-1.6
						c37.6-13.6,53.8-21.2,58.4-15.2L165.4,242c10.2,2.7-7,18.5-44.1,25.3c-21.7,4-79.3,32.1-74,37.7c1.2,1.3-31.8,12.1-47.1,17.9
						c0,51.6-0.2,103.2-0.6,154.7c-0.2,28.3,4.6,56.6,4.4,84.9c10.7-2,20.6-3.9,32-6.1c15.8,15.4,0.5,44.1,61.6,58.7
						c-54.4-10.2-50.7-26-59.7-30c-11.5,6.4-22.5,2.6-34-1.4l-0.2,31.4c6,5,10.9,9.7,13.2,14.1c-4.4-2-8.8-4.1-13.3-6.2
						c-0.2,28.7-0.4,57.4-0.6,86.1c4.6,0.7,8.6,1.2,12.1,1.4c-1.4-0.9-3.3-2-5.7-3.3c8.8,0.7,20.6,0.7,23,10.9
						c-17.6-2.5-25-3.6-29.4-4.2c0,1.5,0,2.9,0,4.3c118.9,41.7,106.7,23,108.3,37.2h-57c-8.3-2.6-21.1-6.6-33.8-10.7
						c4.5,3.4,9.2,6.5,14.1,9.2c-9.8-2.1-21.2-4.1-31.7-5.8c0,0.7,0,1.5,0,2.2c22.6,5.2,49.4,11.3,57.4,13.3c0-0.1-0.1-0.1-0.1-0.2
						c11.6,2.3,21.1,1.9,28.2,2.6c4.3,0.4,10.4,0.8,11.1,1.9c3.7,5.4,26.2,3.9,42.5,4.7c1.4,2.2,4.3,4.3,16.6,6.9
						c-0.2,0.7-0.5,1.3-0.9,1.9c3-0.2,5.6-0.3,8.4-0.4c15.1,2.7,40.1,6,81.8,10.5c-21.3,2.1-110.9-1.7-121.4-14l5.2,8.4
						c-14.8-1.4-36.5-1.9-41.1-0.8c4,1.7-23.5,1.9-57.7-7.1c-21.7,6.4,71.7,18.8,134.2,35.8c2.4,0.7,10.1-0.3,18.9-0.6
						c-4.8-2-12.7-3.1-18.7-4.4c10.3,0.7,20.1,1.4,25.1,3.4c13,5.3,38.7,0.1,53.4,2.6c21.9,3.8,23.1,4.6,50.4,1.1
						c4.1,1.7,7.1,2.9,10.4,4.2c20.7-4.5,109.1,1,123,1.5l5-2.1c20.7,0.3,51.3,1.1,65.3,0.9c-15.7-5.3-41.9-7.5-64.2-4.7
						c-7.1-1.1-27.2-0.7-30-2.5c-10.5-6.7-27.7-3.3-68.8-4.1c30-7.9,51.6-5-29.1-10c6.4,3.7,9.8,5.8,13.3,7.8
						c-21.6,7.4-19,3.5-99.2-5.7c1.6-0.7,3-1.4,4.6-2.1c37.8,3.4,40.8,4.9,53.1,1.5c-8.5-1.8-22.2-2-23-4.9
						c-0.3-1.6,2.9-2.3,7.9-2.5c18.3,1.9,39.3,4,63.7,6.4c21.8,2.1,50.4,0.1,90.9,0c-12.1-1.7-23.4-3.6-34.4-5.4
						c10.4,1,20.9,2,31.3,2.9c75.8,6.1,51.2-3.7,71.6-2.1l4.1-2c-2.7-0.5-6.2-1.1-10.4-1.7c29,0,68.1-0.8,109.6-2.3
						c70.8,3.1,156.6-0.9,198.4-2.4c3.8-0.1,7.9-0.2,11.8-0.2c-1.5,3,6.6,5.7-1.4,8.6c-7.2,2.3-14.5,4.7-23.9,7.6l-1.8,0.2
						c-33.2,3.3-112.8,7-148.5,8.8c2.2,0.5,4.8,0.9,7.8,1.3c-11.6,0.9-21.3,2.2-27.3,4.2c16.8,3.2,98,0.9,121.1-2.3
						c-4.4-0.5-9-0.9-13.9-1.3c3.4-0.4,6.7-1,9.5-1.6c7-1.5,13.8-3.2,23.9-5.5c0.7,6.3,14.1,4.3,27,2.2c-6.3,1.1-12.5,2.4-18.3,3.5
						c23,0.5,56.5-0.9,90.2-3c-3.2,16.5,110.9,1.4,89.7-4.1c-30.8,5.8-30.8,5.8-46.9,3.9c7.1-1.3,14.3-2.6,21.5-4
						c18.6-0.3,43.5-0.9,76.4-1.8c8.1-0.2,18-2.7,27.1-4.1c-25.3-2.5-0.2-6.3,5.7-9.3l-43.8,2c1.3-3.7,2.3-6.4,3.3-9.3
						c33.2-4.8,75-3.7,87.5-16.3c35.1-5.4,62.2-10.6,87.6-15c1.5,0.4,2.9,0.9,4.2,1.6c3.4-1.5,6-2.7,8.3-3.7
						c7.7-1.2,15.2-2.4,22.9-3.4c0.7,0.1,1.3,0.1,2,0.2l6.4-1.3c14.9-1.8,30.3-3.1,47.7-3.8c12.3-0.5,42.9-10.9,59.3-16.3
						c33.7-7.1,64.9-17,103.9-18.7c0.2,0,3.2-0.6,8.2-1.7c42.8-5.2,77.1-13.3,147-27.5c0.8,0,1.7,0,2.4,0c-10,5.3,2.7,1.9-42.8,12.5
						c0.7,0.5,1.4,1.1,2,1.6c93-12.8,191.4-40.8,236.7-53c7.2-1.6,14.1-3.1,20.9-4.6c1.4-0.2,2.8-0.4,4.2-0.5
						c22.4-1.1,33.2-5.5,74.2-16.7c25.6,4.2-1.2,5.7-71.6,32.1c-23.5,8.8-91.4,28-121.4,36.7c30.4-2.6,83.9-13.1,94.8-21.3
						c3-2.2,5.2-4.5,9-7.7c33.3,5.2,31.7-14.7,56.8-9.5c1.7,0.4,12-2,17-3.5c8-2.4,14.9-5.1,25.1-8.6c38.3,11.4,116.4-23,80.5-20.6
						c-15,9.4-15,9.4-35.5,12.1c11.8-7.3,23.7-14.6,35.6-21.9c-4-1.3-7-2.3-9.5-3c11.2-3.7,20.5-6.7,25.2-8.2
						c-7.7,0.7-18.3,3.3-29.9,6.8c-4.3-1.3-6.2-2.2-9.7-5.5c70.4-23.4,112.4-45.1,178.4-67.7l4.1,0.2c-26,12.8-60.9,32.3-58.1,36.6
						c3.1-3.1,31.2-14.9,53.8-26.1c-0.3,0.3-0.4,0.7-0.7,1c0,0,18.4-7.8,40.1-15.6c1.2,0.2,2.4,0.5,3.7,0.7l-26.8,16
						C2134,538.1,2152.2,531.1,2173.4,520.6z M2160.4,121.5c-8.5-5.9-17.3-11.3-26.5-16.1c5.5-1.9,8.9-4.5,14.1-6.2
						C2162.6,110.4,2164.6,117.4,2160.4,121.5z M2135.6,78.9c7,3.5,14.8,6.7,18.4,10.5c1.8,1.9,6.1,3.3,10.7,4.6l-1,0.3
						c-12.4-4.9-23.5-9.3-35.7-14C2131,79.8,2133.5,79.4,2135.6,78.9z M71.1,254.1c0.8-8.7,34.7-10.7,43.8-17.7
						C125.2,246.9,119,246.7,71.1,254.1z M141.4,228.5l6.7-3.6c6.9-0.4,13.7-1.4,20.4-3.1C164.9,223.9,156.9,225.6,141.4,228.5z
						 M82.7,658.8c4.3,1.2,8.5,2.9,12.4,5.2C91,662.4,86.9,660.7,82.7,658.8z M183,722.6c-10.8-3.1-21.1-6.1-32.3-9.4
						c11.9,0.2,23.7,1.1,35.4,2.6c5.8,1.8,12,3.8,19,6C197.8,723,190.4,723.2,183,722.6L183,722.6z M728.9,77.4
						c-0.6,0.7-1.3,1.4-2,2c-10.3,1.8-20.7,3.7-31.2,5.7C704.1,82.9,714.5,80.3,728.9,77.4z M323.1,716.7c-6.9-1-13.6-2.2-20.4-3.2
						C309.7,714.4,316.5,715.5,323.1,716.7z M311.7,778.3c4.9-0.6,9.8-1.2,14.9-1.9c8.2,0.3,13.6,2.7,22,3.8
						C335.9,779.4,323.4,778.8,311.7,778.3z M388.6,782.8c-10-0.8-20.2-1.4-30.3-2.1c5.1,0,10.1-0.4,15.2-1.1
						c-10.6-2.2-17.9-5.4-29.3-5.8c-17-0.6-24.2-2.7-17.8-8c0.4-0.3,0.7-0.7,0.9-1.2c37.6,2.9,83.6,4.8,149.3,7.1
						c20,0.7,43.7-0.9,56.8,3.8C472.5,776.8,418,779.1,388.6,782.8z M591.4,117.6c-0.5-0.3-0.9-0.6-1.4-0.9l32-6
						c-11.4,5-13.3,5.8-23.2,6.8c3.1-0.9,6.2-1.8,9.3-2.7C601.8,116.1,596.3,117,591.4,117.6z M621.8,788.3l2.4-0.1
						C623.3,788.3,622.5,788.3,621.8,788.3z M800,800.8c0.3-0.6,0.6-1.2,1-2c11-0.2,21.5-0.5,32-0.7
						C823.6,798.8,812.5,799.7,800,800.8z M849,79.4c-20.6,3.9-39.4,8.2-63.4,10.4l12-5.6c-7.9,0.1-24.9,4.4-31.7,6.3
						c-16.8,4.6-32.6,8.9-54.3,9.1c-1.4,0-61.3,9.1-72.9,10.3c11.5-5.2,44.8-12.7,82.6-19.3c-3.8,2-7.9,4.3-12.7,7l104.6-18.5
						c5.9-0.2,17.7-1.4,30-2.8c4.6-0.1,8.6,0,12.3,0.2C853.2,77.6,851,78.5,849,79.4L849,79.4z M814,78.2c0.5,0,1-0.1,1.5-0.1
						c-0.3,0.1-0.6,0.1-0.8,0.1C814.4,78.2,814.2,78.2,814,78.2L814,78.2z M858.4,57.9c-28.1,3.8-65.4,9.8-106.3,17
						c-0.7,0-1.6,0-2.3,0c1.9-8.1,9.2-5.8,110.7-19.4c0.4,0.6,0.7,1.3,1,2L858.4,57.9z M915.3,60.9c-5.1,0.5-10,1-15,1.6l11.8-3.3
						c0,0-22.2,2.7-47.9,5.2c7.2-2.1,20.6-5,36.9-8C917.9,55.6,922.9,53.2,915.3,60.9L915.3,60.9z M1069.7,43.2
						c-1.5,0.2-3.1,0.2-4.7,0.2c-5.2-0.4-10.4-0.3-15.6,0.3c-6.1-0.4-13.7-1.1-23.5-1.9c22.7-8.3,42.9-2.7,65.1-7.5
						C1082,39.2,1076.2,41.9,1069.7,43.2L1069.7,43.2z M1261.8,707.3c-1,0.5-1.9,1-2.8,1.6l-4.4,0.6c-1.3-0.3-2.6-0.5-3.7-0.7
						L1261.8,707.3z M1109.3,46.3l6.6-1.5c19.3-1.9,31.2-2.8,33.8-1.7C1135.9,44,1122.4,45,1109.3,46.3L1109.3,46.3z M1123.3,32.4
						l54.1-9C1154,33,1151.3,33.5,1123.3,32.4L1123.3,32.4z M1204.1,715.4l-9.3,1.4c-7.1,0.2-10.1-0.7-11.8-2
						c5.1-0.5,10.3-0.4,15.4,0.5c0.8,0.1,6.7-0.5,15.9-1.7C1211.3,714.2,1207.9,714.8,1204.1,715.4L1204.1,715.4z M1301.7,712.4
						c-23.5,2.8-48,6.4-75.8,6.3l66.3-12.2c13.9,0.9,41.6-0.9,71.8-3.8C1346.4,705.4,1326.1,708.6,1301.7,712.4L1301.7,712.4z
						 M1502.7,684.2c-4.6,0.4-9,0.8-13.2,1.2c7.9-1.4,17.5-3,27.6-4.5L1502.7,684.2z M1587.1,678.8c-0.8-0.6-1.7-1.2-2.5-1.7
						l18.4-3.8l2.4,1.7L1587.1,678.8z M1607.8,25c1-0.7,1.9-1.3,3-2c8.1,0.4,16.2,0.7,29.6,1.3C1619,27,1619,27,1607.8,25z
						 M1767,40.1c9.3-1.3,14.5-2,19.7-2.8c-3.8-1.7-22.4-1.2-30.3-0.9c-19.3,0.8-37.5,1.4-47.8-3.1c-0.7-0.3-50.8-4.7-59.1-6.1
						c44.9-6.1,178.1,2.9,184.1,17.4C1810.8,43.1,1786.8,43.8,1767,40.1L1767,40.1z M1901.8,603.2c-0.6-0.2-1.1-0.2-1.7-0.3
						c3.2-1,6.4-2,9.6-2.9C1909.3,600.4,1907,601.2,1901.8,603.2z M2111.6,231.1c-4.9-4.7-10.1-9.4-15.9-14c1.1,0.4,2.1,0.8,3.3,1.2
						C2112.2,222.2,2113.4,226.7,2111.6,231.1L2111.6,231.1z"/>
					<path class="st1" d="M458.7,128.2c9.5-2.5,69.9-12.7,75.6-18.5C517.1,112.7,461.7,124.1,458.7,128.2z"/>
				</g>
				<g id="Isolation_Mode-2">
					<path class="st1" d="M1114.4,1263.4c16.1,1.5,18.6,4.1,42.4,3.5c-7.1,1.5-12.4,2.8-14.6,3.9c5.9-1.3,24.6-3.4,47.2-5.8
						c34.9-2.8,92.4-8.8,192.5-20.5c26.6-3.1,49.4-10.1,88.5-18.4c-5.9,0.5-11.5,0.9-17.3,1.4c72.9-10.6,136.3-28.6,203.8-40.4
						l1.4-4.3c-78.5,10.1-120.7,14.5-127,19.2c-18.6,13.9-84,14.8-118.9,28.6c-48.2,3.5-91.4,6.3-127.3,12.2
						c-53,8.8-106.5,14.2-160.2,16.4L1114.4,1263.4z"/>
					<path class="st1" d="M1785.9,1184.9c-25,4.3-46.7,10-64.9,17.1C1733.3,1199.5,1781.2,1189.2,1785.9,1184.9z"/>
					<path class="st1" d="M1785.9,1184.9c0.3,0,0.5-0.1,0.8-0.2l-0.5-0.1C1786.1,1184.8,1786,1184.9,1785.9,1184.9z"/>
					<path class="st1" d="M1837.7,1167.4c-20.2,6.9-34.8,11.9-49.2,16.8C1844.8,1171.9,1831.8,1175.8,1837.7,1167.4z"/>
					<path class="st1" d="M1786.7,1184.8c0.6-0.2,1.2-0.4,1.9-0.6C1787.4,1184.4,1785.9,1184.6,1786.7,1184.8z"/>
					<path class="st1" d="M456.4,1271c17.8,3.1,61.2,6.3,89.9,3.8c-21.9-5.2-67.4-6-89.5-3.9L456.4,1271z"/>
					<path class="st1" d="M536.6,1290.9c15.3,1.7,69.4,5.3,81.5,2.2C607.5,1293,554.4,1286.8,536.6,1290.9z"/>
					<path class="st1" d="M618.2,1283c0.4-0.9,61-4.7,61.3-5.6c-9.1,0-112.1-3.1-126.4-3.2C563.4,1279.3,607.1,1284.7,618.2,1283z"
						/>
					<path class="st1" d="M717.3,1299.6c-24.9-1.9-50-1.9-74.9,0.2C654.9,1300.4,704.7,1302.3,717.3,1299.6z"/>
					<path class="st1" d="M718.1,1299.4c-0.3,0-0.5,0.1-0.8,0.2c0.2,0,0.5,0,0.7,0L718.1,1299.4z"/>
					<path class="st1" d="M786.2,1296c-27,1.4-46.6,2.5-65.7,3.5C779.6,1301.6,763.4,1302,786.2,1296z"/>
					<path class="st1" d="M718.1,1299.6l2.5-0.1C719.3,1299.5,718.1,1299.3,718.1,1299.6z"/>
					<path class="st1" d="M1782.3,1168.1c-1.9-0.7,103.8-34.7,102.9-34.6c-17.8,1.6-135.4,39.4-145.7,44.6L1782.3,1168.1z"/>
					<path class="st1" d="M1635.6,1201.3c-10.2,2.5-124.7,25.5-134.1,27.8C1521.4,1227,1627.6,1206,1635.6,1201.3z"/>
					<path class="st1" d="M0.3,1186.8c-0.1,3.6-0.2,7.1-0.3,10.7c28.3,8.2,54.7,13.9,61.5,13C73.8,1208.9,68.8,1196.7,0.3,1186.8z"
						/>
					<path class="st1" d="M551.7,1260.2c17.7,14.3,62.6,9.2,91.9,12.8C622,1265.3,592.2,1262,551.7,1260.2z"/>
					<path class="st1" d="M1264.7,1264.8c3,0.1-62.4,8-82.9,10.4c-6.7,0.1-13.3,0.2-20,0.4c-1.2,1.1-46.6,6.8-47.8,7.8
						c8.3-1,115.4-9.9,115.4-9.9c34.6,1.9,100.3-12.6,100.3-12.6c18.7-3,126.2-15.8,140.2-24.3l-27.5,3.8c15.2-2.8,29-5.3,33.2-6.2
						c-11.5-0.5-56.5,6.4-75.3,12C1347.5,1253.4,1283.1,1262.3,1264.7,1264.8z"/>
					<path class="st1" d="M0.7,1173.1c9.4,2.7,15.9,4.6,15.9,4.5c-0.3-1.3-6.5-4.1-15.8-7.5C0.7,1171.1,0.7,1172.1,0.7,1173.1z"/>
					<path class="st1" d="M2168.1,1044.5l-8.3,5c2.7-0.2,5.5-0.6,8.1-1.2C2168,1047.1,2168.1,1045.8,2168.1,1044.5z"/>
					<path class="st1" d="M2168.3,1037.6c0.2-5.1,0.3-10.2,0.5-15.3c-5.7,1.4-11.2,2.6-16.6,3.3c5.1-2.2,10.7-4.7,16.7-7.2
						c0.5-15.5,1-31.1,1.4-46.6c2.6-98.9,0.9-197.9,0.5-296.8c-0.2-52.6,0.1-105.1,0.9-157.6c-7.8-3.8-17.4-8.3-28.9-13.6
						c-4.1-2-14.8-2.2-22.5-3.2c4.7,9.1-16.2,6.1-26.9,7.5c8.5,3.3,16.1,6.4,24.4,9.7c-10.1,3.2-17.6,5.5-25.6,8.1
						c-19.8-3.1-33.4-10.3-54.2-10.6c-43.4-9.8-87.5-17.4-128.8-28.9l4-2.4c12.9-0.1,25.7-0.2,38.7-0.3c0,0-21.6-4.1-41.9-9.3
						c1.3-0.5,2.6-0.9,3.8-1.4l48.4,4.8c0.1-1.2-2-2.5-5.8-3.8c16.8,2.3,44.6,6.5,55.9,8.1c3.9,1.4,7.8,2.8,11.7,4.2
						c3.1-0.6,41,4.6,44.2,4c-6.7-1-85.7-17.5-85.7-17.5c-14.4-9.5-83.7-11.7-83.7-11.7c-14.7-1.4-81.6-11.3-117.6-11.4
						c-28.8-4.4-58.1-7.6-79.7-6.4c-21.2-1.8-41.5-3.5-60.2-5c-13.6-2.5-26.5-3.2-95.9-7.8c6.2-2,11-3.5,18-5.7
						c-28.1-2.3,9.3-2.1-134,0c-16.2,0.2-131.3-8.5-184.1,3.8c-4,0.9-76.4,4-97.4,6.4c-31.5,3.6-57.2,6-78.6,7.8
						c5.3-1.1,8.9-2.1,9.6-2.7c-8.2-0.2,18.1-5.9,74.4-7.4c4.7-8.3-118,3.1-222.7,5.4c-4.2,0-9.3,2.1-17,4.1
						c9.9,0.3,20.2-0.7,29.4-1.1c-11.8,1.7-23.3,3.2-33.3,3c-26.3-0.6-38,7.8-58.8,9.2c-31,2.1-34.3,1.9-52,9.5
						c-8.4-0.2-14.4-0.3-21-0.5c-8.6,6.9-108.9,21.5-123.8,24c0.2,0.7,0.4,1.5,0.6,2.3c-21,4-52.8,9.7-65.9,12.7
						c29,0,60-3.9,74.6-10.1c9.8-0.8,28.2-5.1,35.7-4.6c5,0.4,9.9,0.5,14.9,0.3c-108.6,17.6-215.4,36.7-230.4,39.2l-1.7,0.2
						c0.8-2.6,1.5-4.5,2.5-7.4c-29.9,5.1,3.2-3.2-116.8,30.3c-13.5,3.8-134.1,25.1-151.5,43.7c-1.3,1.4-57.4,19.5-70,25.5
						c-95.7,45.4-132.8,43.4-115.3,58.3c12-3.3,13-5.5,20.4-2.6c-13.6,5.8-29.9,13.2-49.9,22.7L1.2,718c17-6.8,31.6-13.3,41.8-19.8
						c11.4-7.2,23.2-13.7,35.3-19.5c17.9-6.3,37.2-12.2,48.8-19.8c5.5-2,11.3-3.9,17.3-5.8c-0.1-0.6-0.2-1.3-0.2-1.9
						c11.1-3.1,28.8-7.1,56.5-13.7c-4.8-0.8-9.7-1.6-15.1-2.4c37.9-13.4,54.3-21.2,58.8-14.3c-12.3,4.5-23.7,8.7-35.2,12.8
						c10.2,3.5-7.4,20.2-44.7,26.1c-21.8,3.5-80.1,32.2-74.9,38.7c1.6,2-46.6,19.5-51.8,21.4c-3.2,3.6-7.7,15.2-36.9,33.4
						c-0.3,69.2-0.2,138.4,0.3,207.7l0.1,17.5c8.9,1.8,19.2,3.8,29,5.8c14.9-2.5,27.2-4.5,42-7c15.4,17.8-0.6,49,60.2,67.9
						c-54.2-13.7-50.1-31.2-59-36c-23.7,13.4-44.4-19.7-72.1-7.7c0,0.2,0,0.5,0,0.7c13.7,21.3,43.2,39.9,50,55
						c-4.6-2.6-9.3-5.2-14.1-8c-0.4,2.2-0.6,4.4-0.7,6.7c-12.2-7.5-23.8-15.7-35-24.6c0,11.9,0.1,23.8,0.1,35.7
						c3.4,2.7,7.2,5.8,11.9,9.4l-11.9,6.2c0,11.3-0.1,22.6-0.2,33.9l1.5,0.2c0,0.6,0,1.1,0,1.7l-1.5-1c-0.1,8.4-0.2,16.8-0.3,25.2
						c4.3,2.2,9,3.8,13.7,4.7c-4.4-4.3-7.8-7.6-10.5-10.2c17.8,5.5,33.1,9.4,43.3,10.6c-1.4-1-3.3-2.4-5.6-4
						c8.8,1.2,20.5,1.7,22.8,13.2c-40.1-8.2-27.1-5.6-47.4-9.1c137.1,61.6,124.1,37.4,125.4,54l-57-2.5c-8.2-3.3-20.9-8.3-33.6-13.3
						c4.3,4,9,7.6,13.9,10.9c-23.8-6.7-56.9-13.2-64.5-15.4c11.7,3.8,76.7,23,90,27.3c0-0.1-0.1-0.1-0.1-0.2
						c11.6,3.1,21.1,3.1,28.1,4.1c4.3,0.6,10.4,1.4,11.1,2.6c3.6,6.2,26.2,5.5,42.4,7.1c1.4,2.6,4.2,5,16.4,8.4
						c-0.2,0.7-0.5,1.4-0.9,2.1c3-0.1,5.6-0.1,8.4-0.1c15,3.7,40,8.4,81.6,15.3c-21.3,1.4-110.9-6.8-121.1-20.9l5,9.5
						c-14.8-2.2-36.5-3.7-41.1-2.7c3.9,2.1-23.5,1-57.6-10.4c-21.9,6.2,71.3,24,133.4,45.7c2.4,0.8,10.1,0.2,18.9,0.2
						c-4.8-2.5-12.6-4-18.6-5.7c10.3,1.2,20.1,2.5,25,4.9c12.9,6.5,38.8,1.8,53.4,5.3c21.8,5.2,23,6.1,50.4,3.4
						c4.1,2,7.1,3.5,10.3,5.1c20.8-4.1,109.1,5.9,123,7.1l5-2.2c20.7,1.3,51.3,3.5,65.3,3.8c-15.6-6.6-41.7-10.2-64.1-8
						c-7.1-1.6-27.1-2-29.9-4.1c-10.3-7.9-27.7-4.9-68.7-7.6c30.2-7.4,51.8-3.3-28.9-12.3c6.3,4.4,9.7,6.8,13.1,9.2
						c-21.8,7.3-19.1,3.1-99.1-10.7l4.6-2.2c37.8,5.4,40.7,7.3,53.1,4c-8.5-2.4-22.2-3.2-22.8-6.5c-0.3-1.8,3-2.4,8-2.4
						c18.3,3,39.2,6.2,63.6,9.9c21.7,3.3,50.4,2.4,90.9,4c-12-2.5-23.3-5-34.2-7.5c10.3,1.6,20.8,3.2,31.3,4.6
						c75.7,10.2,51.3-1.8,71.7,0.9c1.4-0.7,2.8-1.4,4.2-2.1c-2.6-0.7-6.2-1.5-10.3-2.3c29,1.3,68.2,2.1,109.7,2.2
						c70.8,6.5,156.7,5.9,198.5,6.1c3.8,0,7.9,0.1,11.8,0.2c-1.6,3.3,6.5,6.7-1.6,9.5c-7.3,2.3-14.7,4.5-24.1,7.4l-1.8,0.1
						c-33.3,2.2-113,2.8-148.8,3.2c2.2,0.6,4.8,1.2,7.8,1.7c-11.7,0.5-21.3,1.6-27.4,3.4c16.7,4.2,98.1,5.4,121.2,2.8
						c-4.3-0.8-9-1.4-13.8-2.1c3.5-0.3,6.7-0.8,9.6-1.3c7.1-1.3,13.9-2.9,24-5.1c0.5,7.1,14,5.4,26.9,3.7c-6.3,1-12.6,2.1-18.4,3.1
						c23,1.5,56.5,1.5,90.3,0.7c-3.6,18.2,111,6.4,89.8-0.6c-31,5.1-31,5.1-47,2.2c7.2-1.2,14.4-2.3,21.5-3.5
						c18.6,0.5,43.5,0.9,76.5,1.3c8.1,0.1,18.1-2.2,27.2-3.3c-25.2-3.9-0.1-7,5.9-10.1c-15.2,0.1-28.8,0.2-43.8,0.3
						c1.4-4,2.4-7,3.6-10.2c33.4-3.9,75.1-0.8,87.9-14.2c35.2-4.4,62.5-9.1,88-12.8c1.5,0.5,2.8,1.2,4.2,2c3.4-1.6,6.1-2.8,8.4-3.8
						c7.7-1,15.3-2,23-2.8c0.7,0.1,1.3,0.2,2,0.3l6.4-1.1c14.9-1.3,30.4-2.1,47.8-2.1c12.3,0,43.2-10.2,59.7-15.5
						c33.9-6.4,65.3-16,104.4-16.2c0.2,0,3.2-0.5,8.2-1.5c42.9-3.8,77.5-11.4,147.7-24c0.8,0.1,1.7,0.1,2.4,0.2
						c-10.1,5.4,2.6,2.2-43.2,11.9c0.6,0.6,1.4,1.3,2,1.9c93.4-10.1,192.4-36.9,238-48.4c7.2-1.4,14.2-2.8,21-4.2
						c1.4-0.1,2.9-0.3,4.2-0.3c22.5-0.3,33.3-4.7,74.6-15.2c25.5,5.8-1.4,6.3-72.3,32.4c-23.7,8.8-92.1,27.1-122.3,35.4
						c30.5-1.6,84.2-10.9,95.3-19.5c3-2.3,5.3-4.7,9.1-8.2c33.2,7.3,32-15,57.1-8c1.7,0.5,12-1.7,17.1-3.1c8-2.3,15-5,25.3-8.5
						c38,14.3,117-20.3,81.1-19.3c-15.2,9.8-15.2,9.8-35.8,11.9c12-7.6,24-15.2,36.1-22.8c-4-1.7-7-2.8-9.5-3.8
						c11.3-3.6,20.7-6.5,25.4-8c-7.7,0.4-18.4,2.8-30.1,6.2c-3.8-1.2-7.1-3.5-9.5-6.6c71-22.9,113.5-45.1,180.1-67.3l4.1,0.4
						c-26.4,13.1-61.6,33.2-59,38.1c3.1-3.3,31.6-15.2,54.4-26.6c-0.3,0.4-0.5,0.7-0.7,1.1
						C2142.9,1047.7,2153.6,1043.1,2168.3,1037.6z M114.6,642.3c1-9.6,34.9-10.3,44.3-17.7C168.9,636.6,162.7,636.1,114.6,642.3z
						 M185.6,616.9l6.8-3.8c4.4,0.1,11.4-0.7,20.4-2.5C209.1,612.8,201.2,614.3,185.6,616.9L185.6,616.9z M14.1,1099.7
						c0-0.2,0-0.3,0-0.5l0.9,0.4C14.7,1099.6,14.4,1099.6,14.1,1099.7z M116.8,1092.3c4.4,1.5,8.5,3.7,12.2,6.3
						C125,1096.6,120.9,1094.5,116.8,1092.3L116.8,1092.3z M215.6,1167.5c-10.7-4-20.9-7.7-32.1-11.8c11.9,0.8,23.7,2.3,35.4,4.4
						c5.8,2.3,11.9,4.8,18.9,7.5C230.4,1168.6,223,1168.6,215.6,1167.5L215.6,1167.5z M356,1167.2c-6.8-1.4-13.5-3-20.3-4.5
						C342.6,1164.1,349.4,1165.6,356,1167.2L356,1167.2z M343.1,1235c4.9-0.5,9.8-0.9,14.9-1.4c8.2,0.8,13.5,3.6,21.9,5.2
						C367.2,1237.4,354.8,1236.2,343.1,1235z M419.9,1243.6c-10-1.3-20.2-2.5-30.2-3.7c5.1,0.2,10.2,0,15.2-0.6
						c-10.6-3-17.8-6.8-29.2-7.7c-17-1.4-24.1-4-17.6-9.7c0.4-0.3,0.7-0.8,0.9-1.3c37.6,4.8,83.5,9,149.2,14.5
						c20,1.7,43.7,0.9,56.7,6.7C504.1,1240.6,449.4,1240.7,419.9,1243.6z M776.8,475c-0.6,0.7-1.3,1.4-2.1,2.1
						c-10.3,1.6-20.8,3.2-31.4,4.9C751.9,480.1,762.4,477.7,776.8,475z M653.1,1259.9h2.4C654.7,1260,653.9,1260,653.1,1259.9z
						 M645.8,513.9c3.1-0.8,6.2-1.7,9.3-2.6c-6.3,1.1-11.8,1.8-16.8,2.2c-0.5-0.3-0.9-0.7-1.3-1.1l32.2-5.2
						C657.6,512.4,655.7,513.2,645.8,513.9L645.8,513.9z M831.1,1281.7c0.3-0.7,0.6-1.3,1.1-2.2c11,0.2,21.6,0.4,32,0.6
						C854.8,1280.5,843.7,1281,831.1,1281.7z M896.9,482.6c-20.7,3.4-39.6,7.3-63.7,8.8c5.8-2.7,8.9-4.2,12.1-5.6
						c-7.9-0.2-25,3.8-31.9,5.6c-16.9,4.4-32.9,8.4-54.6,7.8c-1.4,0-61.6,7.4-73.2,8.3c11.6-5.3,45.1-12.1,83.1-17.7
						c-3.8,2.1-8,4.5-12.9,7.2c39.2-5.9,72.3-10.9,105-15.9c5.9,0.1,17.7-0.7,30-1.8c4.6,0.1,8.6,0.4,12.3,0.7
						C901.2,480.8,899,481.7,896.9,482.6L896.9,482.6z M861.9,479.7c0.5,0,1,0,1.5-0.1c-0.3,0-0.6,0.1-0.8,0.1
						C862.4,479.8,862.2,479.8,861.9,479.7L861.9,479.7z M906.9,459.1c-28.2,2.9-65.7,8-106.8,14.1c-0.7,0-1.6-0.1-2.3-0.1
						c2-8.9,9.4-6,111.2-16.6c0.3,0.7,0.6,1.5,1,2.2L906.9,459.1z M963.8,464.9l-15.1,1.1l11.9-3.2c0,0-22.2,2.1-48,3.8
						c7.2-2,20.7-4.6,37.1-7.2C966.4,459.2,971.5,456.7,963.8,464.9L963.8,464.9z M1118.6,452.1c-1.6,0.1-3.1,0.1-4.7,0
						c-5.2-0.7-10.4-0.8-15.6-0.4c-6.1-0.8-13.7-1.9-23.5-3.2c22.9-8.2,43-1.1,65.3-5.4C1131,448.2,1125.1,451,1118.6,452.1
						L1118.6,452.1z M1295.3,1198.2c-1,0.5-1.9,1-2.8,1.7l-4.4,0.5c-1.3-0.4-2.6-0.7-3.7-1L1295.3,1198.2z M1158.1,457.2l6.6-1.4
						c19.4-1.2,31.3-1.8,33.8-0.4C1184.8,455.9,1171.3,456.5,1158.1,457.2z M1172.5,442.4l54.3-7.6
						C1203.2,444.5,1200.5,444.9,1172.5,442.4z M1237.3,1204.6l-9.3,1.1c-7.1-0.1-10.1-1.2-11.8-2.7c5.2-0.3,10.4,0.1,15.4,1.2
						c0.8,0.2,6.7-0.3,16-1.2C1244.6,1203.6,1241.2,1204.2,1237.3,1204.6z M1335.1,1205.6c-23.6,2-48.1,5-76,3.7l66.6-10.6
						c13.9,1.6,41.6,0.8,71.9-1.1C1380,1199.8,1359.6,1202.5,1335.1,1205.6z M1536.8,1183.2c-4.6,0.2-9,0.5-13.2,0.8
						c7.9-1.2,17.6-2.6,27.8-3.7C1546.6,1181.2,1541.8,1182.2,1536.8,1183.2z M1621.3,1180.9c-0.8-0.7-1.7-1.4-2.4-2l18.5-3.4
						c0.8,0.7,1.6,1.3,2.4,2C1633.6,1178.7,1627.4,1179.8,1621.3,1180.9z M1657.3,455.7c1-0.7,2-1.4,3-2.1c8,0.8,16.2,1.5,29.6,2.8
						C1668.6,458.5,1668.6,458.5,1657.3,455.7L1657.3,455.7z M1816.2,479.5l19.7-2.2c-3.8-2-22.4-2.4-30.3-2.4
						c-19.4,0-37.5-0.1-47.7-5.6c-0.7-0.4-50.7-7.5-59-9.4c45-4.8,178.1,11.1,183.8,27.4C1860,484.8,1836,484.6,1816.2,479.5
						L1816.2,479.5z M1938,1110.8c-0.5-0.2-1.1-0.3-1.7-0.4c3.3-0.9,6.4-1.9,9.6-2.8C1945.6,1108.2,1943.2,1108.8,1938,1110.8z
						 M2141,690.6c1.1,0.5,2.1,1,3.3,1.4c13.1,4.9,14.2,10,12.2,14.8C2151.8,701.4,2146.7,696,2141,690.6L2141,690.6z"/>
					<path class="st1" d="M507.2,519.7c9.5-2.3,70.2-11,76-17.3C565.9,505,510.2,515.2,507.2,519.7z"/>
				</g>
			</g>
		</g>
	</g>
</g>
</svg>
