<?xml version="1.0" encoding="utf-8"?>
<!-- Generator: Adobe Illustrator 24.2.3, SVG Export Plug-In . SVG Version: 6.00 Build 0)  -->
<svg version="1.1" id="Layer_3" xmlns="http://www.w3.org/2000/svg" xmlns:xlink="http://www.w3.org/1999/xlink" x="0px" y="0px"
	 viewBox="0 0 2139.8 269.3" style="enable-background:new 0 0 2139.8 269.3;" xml:space="preserve">
<style type="text/css">
	.st0{clip-path:url(#SVGID_2_);}
	.st1{fill:#0a797d;}
</style>
<g>
	<g>
		<g>
			<g>
				<defs>
					<polygon id="SVGID_1_" points="2154,269.3 -25.1,269.3 -25.1,0 2153,0 					"/>
				</defs>
				<clipPath id="SVGID_2_">
					<use xlink:href="#SVGID_1_"  style="overflow:visible;"/>
				</clipPath>
				<g class="st0">
					<g id="Isolation_Mode">
						<path class="st1" d="M1053.5-260.8c16.1,0.7,18.7,3,42.5,1.4c-7,1.6-12.3,3-14.5,4.1c5.8-1.4,24.5-4,47-7.1
							c34.8-3.9,92.1-11.5,191.8-26.1c26.5-3.9,49.2-11.1,88-20.1c-5.9,0.7-11.5,1.3-17.2,1.9c72.6-12.4,135.5-31.1,202.7-44.4
							l1.3-4c-78.2,12.2-120.2,17.9-126.4,22.4c-18.3,13.3-83.6,16.7-118.1,30.4c-48,5-91.1,9.3-126.8,16
							c-52.8,10-106,17.1-159.6,21.2C1060.6-263.6,1057.1-262.2,1053.5-260.8z"/>
						<path class="st1" d="M1722.4-358c-24.9,4.8-46.4,10.8-64.4,17.9C1670.3-342.9,1717.9-354,1722.4-358z"/>
						<path class="st1" d="M1722.4-358c0.3,0,0.5-0.1,0.8-0.2l-0.5-0.1C1722.6-358.2,1722.5-358.1,1722.4-358z"/>
						<path class="st1" d="M1773.8-375.9c-20.1,7-34.5,12-48.7,17C1781.1-372.1,1768.1-368.1,1773.8-375.9z"/>
						<path class="st1" d="M1723.2-358.2c0.6-0.2,1.2-0.4,1.9-0.6C1723.9-358.6,1722.5-358.3,1723.2-358.2z"/>
						<path class="st1" d="M396.6-227.8c17.8,2.1,61.2,3.3,89.8-0.2c-21.9-3.8-67.4-2.8-89.5,0L396.6-227.8z"/>
						<path class="st1" d="M477.1-213.1c15.3,0.9,69.5,2,81.4-1.3C547.9-214,494.8-217.5,477.1-213.1z"/>
						<path class="st1" d="M558.4-223.5c0.4-0.8,60.9-6.6,61.1-7.4c-9.1,0.4-112,1.6-126.3,2.2C503.6-224.6,547.3-221.5,558.4-223.5
							z"/>
						<path class="st1" d="M657.7-212.4c-25-0.7-50,0.3-74.8,3.2C595.4-209.3,645.2-209.5,657.7-212.4z"/>
						<path class="st1" d="M658.5-212.6c-0.3,0.1-0.5,0.1-0.8,0.2c0.2,0,0.5,0,0.7,0L658.5-212.6z"/>
						<path class="st1" d="M726.5-218.4c-27,2.4-46.5,4.1-65.6,5.7C719.9-213.1,703.8-212.1,726.5-218.4z"/>
						<path class="st1" d="M658.5-212.4l2.5-0.2C659.7-212.6,658.5-212.7,658.5-212.4z"/>
						<path class="st1" d="M1718.5-373c-1.9-0.6,103-35.3,102-35.2c-17.8,2.2-134.4,40.9-144.5,45.9L1718.5-373z"/>
						<path class="st1" d="M1572.7-337.4c-10.2,2.6-124,27.9-133.3,30.3C1459.2-309.7,1564.9-332.8,1572.7-337.4z"/>
						<path class="st1" d="M-26.2-281.2c0,4,0,8,0,12.1C-13-267-2.8-265.9,1-266.5C10.7-268.1,9.4-275.2-26.2-281.2z"/>
						<path class="st1" d="M491.6-241.3c18,12.2,62.7,5.8,92.1,7.8C561.8-239.5,532-241.3,491.6-241.3z"/>
						<path class="st1" d="M1203.7-265.5c3,0-62.2,9.7-82.6,12.7l-19.9,1.1c-1.2,1-46.4,7.9-47.6,8.9c8.2-1.2,115.1-13.5,115.1-13.5
							c34.6,0.3,99.9-15.3,99.9-15.3c18.6-3.4,125.7-19.2,139.4-27.4l-27.4,4.5c15.1-3.1,28.8-5.9,33-6.9c-11.5,0-56.3,8-75,13.8
							C1286.1-279,1221.9-268.5,1203.7-265.5z"/>
						<path class="st1" d="M2144.4-513.2c0.1-7.2,0.2-14.4,0.4-21.6c-19.7,8.4-41.1,15.6-59.8,18.9c10.9-4.8,24.1-10.4,38.1-16.5
							c2-0.6,4-1.4,5.8-2.5c5.3-2.3,10.7-4.7,16-7.1c0.7-39.2,1.7-78.5,3.1-117.7c2.9-85.4,7-170.9,5.9-256.4
							c-0.1-4.3-0.1-8.7-0.2-13l-28.3-6.7c0.4,0,0.7-0.1,1.2-0.2c5.7-0.4,11.6-0.8,18-1.3c3.7,1.2,7,2.5,9.1,4.2
							c0-4.2-0.1-8.4-0.1-12.6c-15.3-4.4-29.5-8.2-40.2-10.7c14.7-4.6-1.1-10.6-48.7-28.5c-4.2-1.6-14.8-1.4-22.6-2
							c4.9,8-16,6.1-26.7,7.8c8.5,2.7,16.2,5.1,24.6,7.7c-10,3.3-17.5,5.7-25.4,8.3c-19.9-2-33.6-8-54.4-7.4
							c-43.5-7.1-87.7-12.2-129.2-20.9l3.9-2.3l38.6-1.8c0,0-21.7-2.8-42-6.7c1.3-0.5,2.6-0.9,3.8-1.4l48.4,2.4
							c0.1-1.1-2.1-2.2-5.9-3.2c16.8,1.4,44.7,4,56,5.1c3.9,1.1,7.8,2.2,11.7,3.3c3.1-0.7,41,2.6,44.2,1.8c-6.8-0.7-86-12.3-86-12.3
							c-14.6-7.9-83.8-7.2-83.8-7.2c-14.7-0.7-81.7-6.9-117.7-5.5c-28.8-2.8-58.2-4.5-79.8-2.6c-21.2-0.8-41.5-1.5-60.2-2.1
							c-13.6-1.7-26.5-1.8-95.9-3.2c6.2-2,11-3.6,17.9-5.9c-28.1-1,9.2-2.2-133.8,5.3c-16.2,0.8-131.3-2.4-183.8,10.8
							c-4,1-76.2,6.6-97.1,9.6c-31.4,4.5-57,7.7-78.3,10.2c5.3-1.2,8.9-2.2,9.6-2.8c-8.2,0.1,18-6,74.2-9.6
							c4.5-7.6-117.8,7.5-222.3,13.7c-4.2,0.2-9.2,2.3-16.9,4.3c9.8-0.2,20.2-1.4,29.4-2.2c-11.7,2-23.2,3.8-33.2,4
							c-26.3,0.5-37.8,8.5-58.6,10.6c-31,3.1-34.2,3-51.7,10.7c-8.4,0.2-14.4,0.3-21,0.4c-8.5,6.5-108.3,23.7-123.1,26.5
							c0.2,0.6,0.4,1.3,0.7,2.1c-20.9,4.4-52.5,10.8-65.5,14c29-1.1,59.8-5.9,74.3-12.1c9.8-1.1,28.1-5.7,35.5-5.5
							c5,0.1,9.9,0,14.9-0.3c-108,20.1-214.2,41.5-229.1,44.3l-1.7,0.3c0.8-2.4,1.4-4.1,2.3-6.8c-29.8,5.8,3.1-3-116,31.9
							c-13.4,3.9-133.5,27.9-150.5,45.3c-1.3,1.3-56.9,19.8-69.4,25.7C27.6-781.1-4.6-770-23.8-762.9c0,4.4,0,8.9,0,13.3
							c1.1,0.2,2.2,0.5,3.3,0.8l-3.2,1.4c0,5.9,0,11.8,0,17.7c9.4-5.7,19.5-11,30.3-16.1c17.8-6.3,36.9-12.5,48.4-19.8
							c5.5-2,11.2-4,17.2-5.9c-0.1-0.6-0.2-1.1-0.3-1.7c11-3.3,28.6-7.5,56.1-14.5c-4.8-0.5-9.7-1-15.1-1.6
							c37.6-13.6,53.8-21.2,58.4-15.2l-34.9,12.9c10.2,2.7-7,18.5-44.1,25.3c-21.7,4-79.3,32.1-74,37.7c1.2,1.3-26.8,12.1-42.1,17.9
							c0,51.6-0.2,103.2-0.6,154.7c-0.2,28.3-0.4,56.7-0.6,85c10.7-2,20.6-3.9,32-6.1c15.8,15.4,0.5,44.1,61.6,58.7
							c-54.4-10.2-50.7-26-59.7-30c-11.5,6.4-22.5,2.6-34-1.4l-0.2,31.4c6,5,10.9,9.6,13.2,14.1c-4.4-2-8.8-4.1-13.3-6.2
							c-0.2,28.7-0.4,57.4-0.6,86.1c4.6,0.7,8.6,1.2,12.1,1.4c-1.4-0.9-3.3-2-5.7-3.3c8.8,0.7,20.6,0.7,23,10.9
							c-17.6-2.5-25-3.6-29.5-4.2c0,1.4,0,2.9,0,4.3c118.9,41.7,106.7,23,108.3,37.2h-57c-8.3-2.6-21.1-6.6-33.8-10.7
							c4.5,3.4,9.2,6.5,14.1,9.2c-9.8-2.1-21.2-4.1-31.7-5.8c0,0.7,0,1.5,0,2.2c22.6,5.2,49.4,11.3,57.4,13.3c0-0.1-0.1-0.1-0.1-0.2
							c11.6,2.4,21.1,1.9,28.2,2.6c4.3,0.4,10.4,0.8,11.1,1.9c3.7,5.4,26.2,3.9,42.5,4.7c1.4,2.2,4.3,4.3,16.6,6.9
							c-0.2,0.7-0.5,1.3-0.9,1.9c3-0.2,5.6-0.3,8.4-0.4c15.1,2.7,40.1,6,81.8,10.5c-21.3,2.1-110.9-1.7-121.4-14l5.2,8.4
							c-14.8-1.4-36.5-1.9-41.1-0.8c4,1.7-23.5,1.9-57.7-7.1c-21.7,6.4,71.7,18.8,134.2,35.8c2.4,0.7,10.1-0.3,18.9-0.6
							c-4.8-2-12.7-3.1-18.7-4.4c10.3,0.7,20.1,1.4,25.1,3.4c13,5.3,38.7,0.1,53.4,2.6c21.9,3.8,23.1,4.6,50.4,1.1
							c4.1,1.7,7.1,2.9,10.4,4.2c20.7-4.5,109.1,1,123,1.5l5-2.1c20.7,0.3,51.3,1.1,65.3,0.9c-15.7-5.3-41.9-7.5-64.2-4.7
							c-7.1-1.1-27.2-0.7-30-2.5c-10.5-6.7-27.7-3.3-68.8-4.1c30-7.9,51.6-5-29.1-9.9c6.4,3.7,9.8,5.8,13.3,7.8
							c-21.6,7.4-19,3.5-99.2-5.6c1.6-0.7,3-1.4,4.6-2.1c37.8,3.4,40.8,4.9,53.1,1.5c-8.5-1.8-22.2-2-23-4.9
							c-0.3-1.6,2.9-2.3,7.9-2.5c18.3,1.9,39.3,4,63.7,6.4c21.8,2.1,50.4,0.1,90.9-0.1c-12.1-1.7-23.4-3.6-34.4-5.4
							c10.4,1,20.9,2,31.3,2.9c75.8,6.1,51.2-3.7,71.6-2.1l4.1-2c-2.7-0.5-6.2-1.1-10.4-1.7c29,0.1,68.1-0.9,109.6-2.4
							c70.8,3.1,156.6-0.9,198.4-2.4c3.8-0.1,7.9-0.2,11.8-0.2c-1.5,3,6.6,5.7-1.4,8.6c-7.2,2.3-14.5,4.7-23.9,7.6l-1.8,0.2
							c-33.2,3.4-112.8,7-148.5,8.8c2.2,0.5,4.8,0.9,7.8,1.3c-11.6,0.9-21.3,2.2-27.3,4.1c16.8,3.1,98,0.9,121.1-2.3
							c-4.4-0.5-9-0.9-13.9-1.3c3.4-0.4,6.7-0.9,9.5-1.6c7-1.5,13.8-3.2,23.9-5.5c0.7,6.3,14.1,4.3,27,2.2
							c-6.3,1.1-12.5,2.4-18.3,3.5c23,0.5,56.5-0.9,90.2-3c-3.2,16.5,110.9,1.4,89.7-4.1c-30.8,5.8-30.8,5.8-46.9,3.9
							c7.1-1.3,14.3-2.6,21.5-4c18.6-0.3,43.5-0.9,76.4-1.8c8.1-0.2,18-2.7,27.1-4.1c-25.3-2.5-0.2-6.3,5.7-9.4l-43.8,2
							c1.3-3.7,2.3-6.4,3.3-9.3c33.2-4.8,75-3.7,87.5-16.3c35.1-5.4,62.2-10.6,87.6-15c1.5,0.4,2.9,0.9,4.2,1.6
							c3.4-1.5,6-2.7,8.3-3.7c7.7-1.2,15.2-2.4,22.9-3.4c0.7,0.1,1.3,0.1,2,0.2l6.4-1.3c14.9-1.8,30.3-3.1,47.7-3.8
							c12.3-0.5,42.9-10.9,59.3-16.3c33.7-7.1,64.9-17,103.9-18.7c0.2,0,3.2-0.6,8.2-1.6c42.8-5.1,77.1-13.3,147-27.5
							c0.8,0,1.7,0,2.4,0c-10,5.3,2.7,1.9-42.8,12.5c0.7,0.5,1.4,1.1,2,1.6c93-12.8,191.4-40.8,236.7-53c7.2-1.5,14.1-3.1,20.9-4.6
							c1.4-0.2,2.8-0.4,4.2-0.5c22.4-1.1,33.2-5.5,74.2-16.7c25.6,4.2-1.2,5.7-71.6,32.1c-23.5,8.8-91.4,28-121.4,36.7
							c30.4-2.6,83.9-13.1,94.8-21.3c3-2.2,5.2-4.5,9-7.7c33.3,5.2,31.7-14.7,56.8-9.5c1.7,0.4,12-2,17-3.5c8-2.4,14.9-5.1,25.1-8.6
							c38.3,11.4,116.4-23,80.5-20.6c-15,9.4-15,9.4-35.5,12.1c11.8-7.3,23.7-14.6,35.6-21.9c-4-1.4-7-2.3-9.5-3
							c11.2-3.7,20.5-6.7,25.2-8.2c-7.7,0.6-18.3,3.3-29.9,6.8c-4.3-1.3-6.2-2.2-9.7-5.5c70.4-23.4,112.4-45.1,178.4-67.7l4.1,0.2
							c-26,12.9-60.9,32.4-58.1,36.6c3.1-3.1,31.2-14.9,53.8-26.1c-0.3,0.3-0.4,0.7-0.7,1c0,0,18.4-7.8,40.1-15.6
							c1.2,0.2,2.4,0.5,3.7,0.7l-26.8,16C2105-495.7,2123.2-502.8,2144.4-513.2z M2131.4-912.4c-8.5-5.9-17.3-11.3-26.5-16.1
							c5.5-1.9,8.9-4.5,14.1-6.2C2133.6-923.5,2135.6-916.5,2131.4-912.4z M2106.6-955c7,3.5,14.8,6.7,18.4,10.5
							c1.8,1.9,6.1,3.3,10.7,4.6l-1,0.3c-12.4-4.9-23.5-9.3-35.7-14C2102-954.1,2104.5-954.5,2106.6-955z M42.1-779.8
							c0.8-8.7,34.7-10.7,43.8-17.7C96.2-787.1,90-787.2,42.1-779.8z M112.4-805.4l6.7-3.6c6.9-0.4,13.7-1.4,20.4-3.1
							C135.9-810,127.9-808.3,112.4-805.4L112.4-805.4z M53.7-375c4.3,1.2,8.5,2.9,12.4,5.2C62-371.5,57.9-373.2,53.7-375z
							 M154-311.3c-10.8-3.1-21.1-6.1-32.3-9.4c11.9,0.2,23.7,1.1,35.4,2.6c5.8,1.9,12,3.8,19,6C168.8-310.9,161.4-310.6,154-311.3
							L154-311.3z M699.9-956.5c-0.6,0.7-1.3,1.4-2,2c-10.3,1.8-20.7,3.7-31.2,5.7C675.1-951,685.5-953.5,699.9-956.5z M294.1-317.2
							c-6.9-1-13.6-2.1-20.4-3.2C280.7-319.5,287.5-318.4,294.1-317.2z M282.7-255.6c4.9-0.6,9.8-1.2,14.9-1.9
							c8.2,0.4,13.6,2.7,22,3.8C306.9-254.4,294.4-255.1,282.7-255.6z M359.6-251c-10-0.8-20.2-1.4-30.3-2.1
							c5.1,0,10.1-0.4,15.2-1.1c-10.6-2.2-17.9-5.4-29.3-5.8c-17-0.6-24.2-2.7-17.8-8c0.4-0.3,0.7-0.7,0.9-1.2
							c37.6,2.9,83.6,4.8,149.3,7.1c20,0.7,43.7-0.9,56.8,3.8C443.5-257.1,389-254.8,359.6-251z M562.4-916.3
							c-0.5-0.3-0.9-0.6-1.4-0.9l32-6c-11.4,5-13.3,5.8-23.2,6.8c3.1-0.9,6.2-1.8,9.3-2.7C572.8-917.7,567.3-916.9,562.4-916.3z
							 M592.8-245.6l2.4-0.1C594.3-245.6,593.5-245.5,592.8-245.6L592.8-245.6z M771-233.1c0.3-0.6,0.6-1.2,1-2
							c11-0.2,21.5-0.5,32-0.7C794.6-235.1,783.5-234.2,771-233.1L771-233.1z M820-954.5c-20.6,3.9-39.4,8.2-63.4,10.4l12-5.5
							c-7.9,0.1-24.9,4.4-31.7,6.3c-16.8,4.6-32.6,8.9-54.3,9.1c-1.4,0-61.3,9.1-72.9,10.3c11.5-5.2,44.8-12.7,82.6-19.3
							c-3.8,2-7.9,4.3-12.7,7l104.6-18.5c5.9-0.2,17.7-1.4,30-2.8c4.6-0.1,8.6,0,12.3,0.2C824.2-956.3,822-955.4,820-954.5
							L820-954.5z M785-955.7c0.5,0,1-0.1,1.5-0.1c-0.3,0-0.6,0.1-0.8,0.1C785.4-955.6,785.2-955.6,785-955.7L785-955.7z M829.4-976
							c-28.1,3.8-65.4,9.8-106.3,17c-0.7,0-1.6,0-2.3,0c1.9-8.1,9.2-5.8,110.7-19.4c0.4,0.6,0.7,1.3,1,2L829.4-976z M886.3-973
							c-5.1,0.5-10,1-15,1.6l11.8-3.3c0,0-22.2,2.8-47.9,5.3c7.2-2.1,20.6-5,36.9-8C888.9-978.3,893.9-980.7,886.3-973z
							 M1040.7-990.7c-1.5,0.2-3.1,0.2-4.7,0.2c-5.2-0.4-10.4-0.3-15.6,0.3c-6.1-0.4-13.7-1.1-23.5-1.9c22.7-8.3,42.9-2.7,65.1-7.5
							C1053-994.7,1047.2-992,1040.7-990.7L1040.7-990.7z M1232.8-326.6c-1,0.5-1.9,1-2.8,1.6l-4.4,0.6c-1.3-0.3-2.6-0.5-3.7-0.7
							L1232.8-326.6z M1080.3-987.6l6.6-1.5c19.3-1.9,31.2-2.8,33.8-1.7C1106.9-989.9,1093.4-988.8,1080.3-987.6L1080.3-987.6z
							 M1094.3-1001.5l54.1-9C1125-1000.9,1122.3-1000.4,1094.3-1001.5L1094.3-1001.5z M1175.1-318.5l-9.3,1.4
							c-7.1,0.2-10.1-0.7-11.8-1.9c5.1-0.5,10.3-0.4,15.4,0.5c0.8,0.1,6.7-0.5,15.9-1.7C1182.3-319.7,1178.9-319.1,1175.1-318.5
							L1175.1-318.5z M1272.7-321.5c-23.5,2.8-48,6.4-75.8,6.3l66.3-12.2c13.9,0.9,41.6-0.9,71.8-3.9
							C1317.4-328.5,1297.1-325.3,1272.7-321.5L1272.7-321.5z M1473.7-349.7c-4.6,0.4-9,0.8-13.2,1.2c7.9-1.4,17.5-3,27.6-4.5
							L1473.7-349.7z M1558.1-355.1c-0.8-0.6-1.7-1.2-2.5-1.7l18.4-3.8l2.4,1.7L1558.1-355.1z M1578.8-1008.9c1-0.7,1.9-1.3,3-2
							c8.1,0.4,16.2,0.7,29.6,1.3C1590-1006.9,1590-1006.9,1578.8-1008.9L1578.8-1008.9z M1738-993.8c9.3-1.3,14.5-2,19.7-2.8
							c-3.8-1.7-22.4-1.2-30.3-0.9c-19.3,0.8-37.5,1.4-47.8-3.1c-0.7-0.3-50.8-4.7-59.1-6.1c44.9-6.1,178.1,2.9,184.1,17.3
							C1781.8-990.8,1757.8-990,1738-993.8L1738-993.8z M1872.8-430.7c-0.6-0.1-1.1-0.2-1.7-0.3c3.2-1,6.4-2,9.6-2.9
							C1880.3-433.5,1878-432.7,1872.8-430.7z M2082.6-802.8c-4.9-4.7-10.1-9.4-15.9-14c1.1,0.4,2.1,0.8,3.3,1.2
							C2083.2-811.7,2084.4-807.2,2082.6-802.8z"/>
						<path class="st1" d="M431.5-905.6c9.5-2.5,69.9-12.7,75.6-18.5C489.9-921.2,434.5-909.7,431.5-905.6z"/>
					</g>
					<g id="Isolation_Mode-2">
						<path class="st1" d="M1087.2,229.5c16.1,1.5,18.6,4.1,42.4,3.5c-7.1,1.5-12.4,2.8-14.6,3.9c5.9-1.4,24.6-3.4,47.2-5.8
							c34.9-2.8,92.4-8.8,192.5-20.5c26.6-3.1,49.4-10.1,88.5-18.4c-5.9,0.5-11.5,0.9-17.3,1.4c72.9-10.6,136.3-28.6,203.8-40.4
							l1.4-4.3c-78.5,10.1-120.7,14.5-127,19.2c-18.6,13.9-84,14.8-118.9,28.6c-48.2,3.5-91.4,6.4-127.3,12.2
							c-53,8.8-106.5,14.2-160.2,16.4L1087.2,229.5z"/>
						<path class="st1" d="M1758.7,151c-25,4.3-46.7,10-64.9,17.1C1706.1,165.6,1754,155.4,1758.7,151z"/>
						<path class="st1" d="M1758.7,151c0.3-0.1,0.5-0.1,0.8-0.1l-0.5-0.1C1758.9,150.9,1758.8,150.9,1758.7,151z"/>
						<path class="st1" d="M1810.5,133.5c-20.2,6.9-34.8,11.9-49.2,16.8C1817.6,138,1804.6,141.9,1810.5,133.5z"/>
						<path class="st1" d="M1759.5,150.9c0.6-0.2,1.2-0.4,1.9-0.6C1760.2,150.5,1758.7,150.7,1759.5,150.9z"/>
						<path class="st1" d="M429.2,237.1c17.8,3.1,61.2,6.3,89.9,3.8c-21.9-5.2-67.4-6-89.5-3.9L429.2,237.1z"/>
						<path class="st1" d="M509.4,257c15.3,1.7,69.4,5.3,81.5,2.2C580.3,259.1,527.2,252.9,509.4,257z"/>
						<path class="st1" d="M591,249.1c0.4-0.9,61-4.7,61.3-5.5c-9.1,0-112.1-3.1-126.4-3.1C536.2,245.4,579.9,250.8,591,249.1z"/>
						<path class="st1" d="M690.1,265.7c-24.9-1.9-50-1.9-74.9,0.2C627.7,266.5,677.5,268.4,690.1,265.7z"/>
						<path class="st1" d="M690.9,265.5c-0.3,0-0.5,0.1-0.8,0.2c0.2,0,0.5,0,0.7,0L690.9,265.5z"/>
						<path class="st1" d="M759,262.2c-27,1.4-46.6,2.5-65.7,3.5C752.4,267.7,736.2,268.1,759,262.2z"/>
						<path class="st1" d="M690.9,265.8l2.5-0.1C692.1,265.6,690.9,265.4,690.9,265.8z"/>
						<path class="st1" d="M1755.1,134.2c-1.9-0.7,103.8-34.7,102.9-34.6c-17.8,1.6-135.4,39.4-145.7,44.6L1755.1,134.2z"/>
						<path class="st1" d="M1608.4,167.4c-10.2,2.5-124.7,25.5-134.1,27.8C1494.2,193.1,1600.4,172.1,1608.4,167.4z"/>
						<path class="st1" d="M-26.9,152.9c-0.1,3.6-0.2,7.1-0.3,10.7c28.3,8.2,54.7,13.9,61.5,13C46.6,175,41.6,162.8-26.9,152.9z"/>
						<path class="st1" d="M524.5,226.3c17.7,14.3,62.6,9.2,91.9,12.8C594.8,231.4,565,228.1,524.5,226.3z"/>
						<path class="st1" d="M1237.5,230.9c3,0.1-62.4,8-82.9,10.4c-6.7,0.1-13.3,0.2-20,0.4c-1.2,1.1-46.6,6.8-47.8,7.8
							c8.3-1,115.4-9.9,115.4-9.9c34.6,1.9,100.3-12.6,100.3-12.6c18.7-3,126.2-15.8,140.2-24.3l-27.5,3.8c15.2-2.8,29-5.3,33.2-6.2
							c-11.5-0.5-56.5,6.4-75.3,12C1320.3,219.6,1255.9,228.4,1237.5,230.9z"/>
						<path class="st1" d="M-26.5,139.2c9.4,2.7,15.9,4.6,15.9,4.5c-0.3-1.3-6.5-4.1-15.8-7.5C-26.5,137.2-26.5,138.2-26.5,139.2z"
							/>
						<path class="st1" d="M2150.9,10.7l-8.3,5c2.7-0.2,5.5-0.6,8.1-1.2C2150.8,13.2,2150.9,11.9,2150.9,10.7z"/>
						<path class="st1" d="M2151.1,3.7c0.2-5.1,0.3-10.2,0.5-15.3c-5.7,1.4-11.2,2.5-16.6,3.3c5.1-2.2,10.7-4.7,16.7-7.2
							c0.5-15.5,1-31.1,1.4-46.6c2.6-98.9-9.1-197.9-9.5-296.8c-0.2-52.6,0.1-105.1,0.9-157.6c-7.8-3.8-17.4-8.3-28.9-13.6
							c-4.1-2-14.8-2.2-22.5-3.2c4.7,9.1-16.2,6.1-26.9,7.5c8.5,3.3,16.1,6.4,24.4,9.7c-10.1,3.2-17.6,5.5-25.6,8.1
							c-19.8-3.1-33.4-10.3-54.2-10.6c-43.4-9.8-87.5-17.4-128.8-28.9l4-2.4c12.9-0.1,25.7-0.2,38.7-0.3c0,0-21.6-4.1-41.9-9.3
							c1.3-0.5,2.6-0.9,3.8-1.4l48.4,4.8c0.1-1.2-2-2.5-5.8-3.8c16.8,2.3,44.6,6.5,55.9,8.1c3.9,1.4,7.8,2.8,11.7,4.2
							c3.1-0.6,41,4.6,44.2,4c-6.7-1-85.7-17.5-85.7-17.5c-14.4-9.5-83.7-11.7-83.7-11.7c-14.7-1.4-81.6-11.3-117.6-11.3
							c-28.8-4.4-58.1-7.6-79.7-6.4c-21.2-1.8-41.5-3.5-60.2-5c-13.6-2.5-26.5-3.2-95.9-7.8c6.2-2,11-3.5,18-5.7
							c-28.1-2.3,9.3-2.1-134,0c-16.2,0.2-131.3-8.5-184.1,3.8c-4,0.9-76.4,4-97.4,6.4c-31.5,3.6-57.2,6-78.6,7.8
							c5.3-1.1,8.9-2.1,9.6-2.7c-8.2-0.2,18.1-5.9,74.4-7.4c4.7-8.3-118,3.1-222.7,5.4c-4.2,0-9.3,2.1-17,4.1
							c9.9,0.3,20.2-0.7,29.4-1.1c-11.8,1.7-23.3,3.2-33.3,3c-26.3-0.6-38,7.8-58.8,9.2c-31,2.1-34.3,1.9-52,9.5
							c-8.4-0.2-14.4-0.3-21-0.5c-8.6,6.9-108.9,21.5-123.8,24c0.2,0.7,0.4,1.5,0.6,2.3c-21,4-52.8,9.7-65.9,12.7
							c29,0,60-3.9,74.6-10.1c9.8-0.8,28.2-5.1,35.7-4.6c5,0.4,9.9,0.5,14.9,0.3c-108.6,17.5-215.3,36.6-230.3,39.1l-1.7,0.1
							c0.8-2.6,1.5-4.5,2.5-7.4c-29.9,5.1,3.2-3.2-116.8,30.3c-13.6,3.8-134.2,25.1-151.6,43.7c-1.3,1.4-57.4,19.5-70,25.5
							C23.2-370.2-13.9-372.2,3.6-357.4c12-3.3,13-5.5,20.4-2.6c-13.6,5.9-29.9,13.2-49.9,22.6l-0.1,21.2C-9-323,5.6-329.5,15.8-336
							c11.4-7.2,23.2-13.7,35.3-19.5c17.9-6.3,37.2-12.2,48.8-19.8c5.5-2,11.3-3.9,17.3-5.8c-0.1-0.6-0.2-1.3-0.2-1.9
							c11.1-3.1,28.8-7.1,56.5-13.7c-4.8-0.8-9.7-1.6-15.1-2.4c37.9-13.4,54.3-21.2,58.8-14.3c-12.3,4.5-23.7,8.7-35.2,12.8
							c10.2,3.5-7.4,20.2-44.7,26.1c-21.8,3.5-80.1,32.2-74.9,38.6c1.6,2-46.6,19.5-51.8,21.4c-3.2,3.6-7.7,15.3-36.9,33.4
							c-0.2,69.5-0.1,138.7,0.4,207.9l0.1,17.5c8.9,1.7,19.2,3.8,29,5.7c14.9-2.5,27.2-4.5,42-7c15.4,17.8-0.6,49,60.2,67.9
							c-54.2-13.7-50.1-31.2-59-36C22.8-11.6,2-44.7-25.6-32.7c0,0.2,0,0.5,0,0.7c13.7,21.3,43.2,39.9,50,55
							c-4.6-2.6-9.3-5.2-14.1-8c-0.4,2.2-0.6,4.4-0.7,6.7C-2.5,14.2-14.2,6-25.3-2.9c0,11.9,0.1,23.8,0.1,35.7
							c3.4,2.7,7.2,5.8,11.9,9.4l-11.9,6.2c0,11.3-0.1,22.6-0.2,33.9l1.5,0.1c0,0.6,0,1.1,0,1.7l-1.5-1c-0.1,8.4-0.2,16.8-0.3,25.2
							c4.4,2.2,9,3.7,13.9,4.6c-4.4-4.4-7.8-7.6-10.5-10.2c17.8,5.5,33.1,9.4,43.3,10.6c-1.4-1-3.3-2.4-5.6-4
							c8.8,1.2,20.5,1.7,22.7,13.2c-40.1-8.2-27.2-5.6-47.4-9.1c137.1,61.6,124.1,37.4,125.4,54l-57-2.5
							c-8.2-3.3-20.9-8.3-33.6-13.3c4.3,4,9,7.6,13.9,10.9c-24.1-6.7-57.1-13.2-64.8-15.5c11.7,3.9,76.7,23,90,27.4
							c0-0.1-0.1-0.1-0.1-0.2c11.6,3.1,21.1,3.1,28.1,4.1c4.3,0.6,10.4,1.4,11.1,2.6c3.6,6.1,26.2,5.5,42.4,7.1
							c1.4,2.6,4.2,5,16.4,8.4c-0.2,0.7-0.5,1.4-0.9,2.1c3-0.1,5.6-0.1,8.4-0.1c15,3.7,40,8.4,81.6,15.3
							c-21.3,1.4-110.9-6.8-121.1-20.9l5,9.5c-14.8-2.2-36.5-3.7-41.1-2.7c3.9,2.1-23.5,1-57.6-10.4c-21.9,6.2,71.3,24,133.4,45.7
							c2.4,0.8,10.1,0.1,18.9,0.2c-4.8-2.5-12.6-4-18.6-5.7c10.3,1.2,20.1,2.5,25,4.9c12.9,6.5,38.8,1.8,53.4,5.3
							c21.8,5.2,23,6.1,50.4,3.5c4.1,2,7.1,3.5,10.3,5.1c20.8-4,109.1,5.9,123,7.1l5-2.1c20.7,1.3,51.3,3.5,65.3,3.9
							c-15.6-6.6-41.7-10.2-64.1-8c-7.1-1.5-27.1-2-29.9-4.1c-10.3-7.9-27.7-4.9-68.7-7.6c30.2-7.4,51.8-3.3-28.9-12.3
							c6.3,4.4,9.7,6.8,13.1,9.2c-21.8,7.3-19.1,3.1-99.1-10.6l4.6-2.2c37.8,5.4,40.7,7.3,53.1,4c-8.5-2.4-22.2-3.2-22.8-6.5
							c-0.3-1.8,3-2.4,8-2.4c18.3,3,39.2,6.2,63.6,9.9c21.7,3.3,50.4,2.4,90.9,4c-12-2.5-23.3-5-34.2-7.5
							c10.3,1.6,20.8,3.1,31.3,4.5c75.7,10.1,51.3-1.8,71.7,0.9c1.4-0.7,2.8-1.4,4.2-2.1c-2.6-0.7-6.2-1.5-10.3-2.3
							c29,1.3,68.2,2.1,109.7,2.2c70.8,6.5,156.7,5.9,198.5,6.1c3.8,0,7.9,0.1,11.8,0.2c-1.6,3.3,6.5,6.7-1.6,9.5
							c-7.3,2.3-14.7,4.5-24.1,7.4l-1.8,0.1c-33.3,2.2-113,2.8-148.8,3.2c2.2,0.6,4.8,1.2,7.8,1.7c-11.7,0.5-21.3,1.5-27.4,3.4
							c16.7,4.2,98.1,5.4,121.2,2.8c-4.3-0.8-9-1.4-13.8-2.1c3.5-0.3,6.7-0.8,9.6-1.3c7.1-1.4,13.9-2.9,24-5.1
							c0.5,7.1,14,5.4,26.9,3.7c-6.3,1-12.6,2.1-18.4,3.1c23,1.5,56.5,1.5,90.3,0.7c-3.6,18.2,111,6.5,89.8-0.5
							c-31,5.1-31,5.1-47,2.2c7.2-1.2,14.4-2.3,21.5-3.5c18.6,0.5,43.5,0.9,76.5,1.3c8.1,0.1,18.1-2.2,27.2-3.3
							c-25.2-3.9-0.1-7,5.9-10.1c-15.2,0.1-28.8,0.2-43.8,0.3c1.4-4,2.4-7,3.6-10.2c33.4-3.9,75.1-0.8,87.9-14.2
							c35.2-4.4,62.5-9.1,88-12.8c1.5,0.5,2.8,1.2,4.2,2c3.4-1.6,6.1-2.8,8.4-3.8c7.7-1,15.3-2,23-2.8c0.7,0.1,1.3,0.2,2,0.3
							l6.4-1.1c14.9-1.3,30.4-2.1,47.8-2.1c12.3,0,43.2-10.2,59.7-15.5c33.9-6.4,65.3-16,104.4-16.2c0.2,0,3.2-0.5,8.2-1.5
							c42.9-3.8,77.5-11.4,147.7-24c0.8,0,1.7,0.1,2.4,0.2c-10.1,5.4,2.6,2.2-43.2,11.9c0.6,0.6,1.4,1.3,2,1.9
							c93.4-10.1,192.4-36.9,238-48.4c7.2-1.4,14.2-2.8,21-4.2c1.4-0.1,2.9-0.3,4.2-0.3c22.5-0.3,33.3-4.7,74.6-15.2
							c25.5,5.8-1.4,6.3-72.3,32.4c-23.7,8.8-92.1,27.1-122.3,35.4c30.5-1.6,84.2-10.9,95.3-19.5c3-2.3,5.3-4.7,9.1-8.2
							c33.2,7.3,32-15,57.1-8c1.7,0.5,12-1.7,17.1-3.1c8-2.3,15-5,25.3-8.5c38,14.3,117-20.4,81.1-19.3
							c-15.2,9.8-15.2,9.8-35.8,11.9c12-7.6,24-15.2,36.1-22.8c-4-1.7-7-2.8-9.5-3.8c11.3-3.6,20.7-6.5,25.4-8
							c-7.7,0.4-18.4,2.8-30.1,6.2c-3.8-1.2-7.1-3.5-9.5-6.6c71-22.9,113.5-45.1,180.1-67.3c1.3,0.1,12.8,0.3,14.1,0.4
							c-26.4,13.1-71.6,33.2-69,38.1c3.1-3.3,31.6-15.2,54.4-26.6c-0.3,0.4-0.5,0.7-0.7,1.1C2115.7,13.8,2136.4,9.2,2151.1,3.7z
							 M87.4-391.6c1-9.6,34.9-10.3,44.3-17.7C141.7-397.3,135.5-397.8,87.4-391.6z M158.4-417l6.8-3.8c4.4,0.1,11.4-0.7,20.4-2.5
							C181.9-421,174-419.5,158.4-417L158.4-417z M-13.1,65.8c0-0.2,0-0.3,0-0.5l0.9,0.4C-12.5,65.7-12.8,65.7-13.1,65.8z
							 M89.6,58.4c4.4,1.5,8.5,3.7,12.2,6.3C97.8,62.7,93.7,60.6,89.6,58.4z M188.4,133.6c-10.7-4-20.9-7.7-32.1-11.8
							c11.9,0.8,23.7,2.3,35.4,4.4c5.8,2.3,11.9,4.8,18.9,7.5C203.2,134.7,195.8,134.7,188.4,133.6L188.4,133.6z M328.8,133.3
							c-6.8-1.4-13.5-3-20.3-4.5C315.4,130.2,322.2,131.7,328.8,133.3L328.8,133.3z M315.9,201.2c4.9-0.5,9.8-0.9,14.9-1.4
							c8.2,0.8,13.5,3.5,21.9,5.2C340,203.6,327.6,202.3,315.9,201.2z M392.7,209.7c-10-1.3-20.2-2.5-30.2-3.7
							c5.1,0.2,10.2,0,15.2-0.6c-10.6-3-17.8-6.8-29.2-7.7c-17-1.4-24.1-4-17.6-9.7c0.4-0.3,0.7-0.8,0.9-1.3
							c37.6,4.9,83.5,9,149.2,14.5c20,1.7,43.7,0.9,56.7,6.7C476.9,206.7,422.2,206.8,392.7,209.7L392.7,209.7z M749.6-558.9
							c-0.6,0.7-1.3,1.4-2.1,2.1c-10.3,1.6-20.8,3.2-31.4,4.9C724.7-553.8,735.2-556.2,749.6-558.9z M625.9,226h2.4
							C627.5,226.1,626.7,226.1,625.9,226z M618.6-520c3.1-0.9,6.2-1.7,9.3-2.6c-6.3,1.1-11.8,1.8-16.8,2.2
							c-0.5-0.3-0.9-0.7-1.3-1.1l32.2-5.2C630.4-521.5,628.5-520.7,618.6-520L618.6-520z M803.9,247.8c0.3-0.6,0.6-1.3,1.1-2.2
							c11,0.2,21.6,0.4,32,0.6C827.6,246.6,816.5,247.1,803.9,247.8z M869.7-551.3c-20.7,3.4-39.6,7.3-63.7,8.8
							c5.8-2.7,8.9-4.2,12.1-5.6c-7.9-0.2-25,3.8-31.9,5.6c-16.9,4.4-32.9,8.4-54.6,7.8c-1.4,0-61.6,7.4-73.2,8.3
							c11.6-5.3,45.1-12.1,83.1-17.7c-3.8,2.1-8,4.5-12.9,7.2c39.2-5.9,72.3-10.9,105-15.9c5.9,0.1,17.7-0.7,30-1.8
							c4.6,0.1,8.6,0.4,12.3,0.7C874-553.1,871.8-552.2,869.7-551.3L869.7-551.3z M834.7-554.2c0.5,0,1,0,1.5-0.1
							c-0.3,0-0.6,0.1-0.8,0.1C835.2-554.1,835-554.1,834.7-554.2L834.7-554.2z M879.7-574.8c-28.2,2.9-65.7,8-106.8,14.1
							c-0.7,0-1.6-0.1-2.3-0.1c2-8.9,9.4-6,111.2-16.6c0.3,0.7,0.6,1.5,1,2.2L879.7-574.8z M936.6-569l-15.1,1.1l11.9-3.2
							c0,0-22.2,2.1-48,3.8c7.2-2,20.7-4.6,37.1-7.2C939.2-574.7,944.3-577.1,936.6-569L936.6-569z M1091.4-581.8
							c-1.6,0.1-3.1,0.1-4.7,0c-5.2-0.7-10.4-0.8-15.6-0.4c-6.1-0.8-13.7-1.9-23.5-3.2c22.9-8.2,43-1.1,65.3-5.4
							C1103.8-585.6,1097.9-582.9,1091.4-581.8L1091.4-581.8z M1268.1,164.3c-1,0.5-1.9,1-2.8,1.7l-4.4,0.5c-1.3-0.4-2.6-0.7-3.7-1
							L1268.1,164.3z M1130.9-576.7l6.6-1.4c19.4-1.2,31.3-1.8,33.8-0.4C1157.6-578,1144.1-577.4,1130.9-576.7z M1145.3-591.5
							l54.3-7.6C1176-589.4,1173.3-589,1145.3-591.5z M1210.1,170.7l-9.3,1.1c-7.1-0.1-10.1-1.2-11.8-2.7c5.2-0.3,10.4,0.1,15.4,1.2
							c0.8,0.2,6.7-0.3,16-1.2C1217.4,169.7,1214,170.3,1210.1,170.7z M1307.9,171.7c-23.6,2-48.1,5-76,3.7l66.6-10.6
							c13.9,1.6,41.6,0.8,71.9-1.1C1352.8,166,1332.4,168.6,1307.9,171.7z M1509.6,149.3c-4.6,0.2-9,0.5-13.2,0.8
							c7.9-1.2,17.6-2.6,27.8-3.7C1519.4,147.3,1514.6,148.3,1509.6,149.3z M1594.1,147c-0.8-0.7-1.7-1.4-2.4-2l18.5-3.4l2.4,2
							C1606.4,144.8,1600.2,145.9,1594.1,147L1594.1,147z M1630.1-578.2c1-0.7,2-1.4,3-2.1c8,0.8,16.2,1.5,29.6,2.8
							C1641.4-575.4,1641.4-575.4,1630.1-578.2L1630.1-578.2z M1789-554.4l19.7-2.2c-3.8-2-22.4-2.4-30.3-2.4
							c-19.4,0-37.5-0.1-47.7-5.6c-0.7-0.4-50.7-7.5-59-9.4c45-4.8,178.1,11.1,183.8,27.4C1832.8-549.1,1808.8-549.3,1789-554.4
							L1789-554.4z M1910.8,77c-0.5-0.2-1.1-0.3-1.7-0.4c3.3-1,6.4-1.9,9.6-2.9C1918.4,74.3,1916,75,1910.8,77z M2113.8-343.2
							c1.1,0.5,2.1,1,3.3,1.4c13.1,4.9,14.2,10,12.2,14.8C2124.6-332.5,2119.5-337.9,2113.8-343.2L2113.8-343.2z"/>
						<path class="st1" d="M480-514.2c9.5-2.3,70.2-11,76-17.3C538.7-528.9,483-518.6,480-514.2z"/>
					</g>
				</g>
			</g>
		</g>
	</g>
</g>
</svg>
